<?xml version="1.0" standalone="no"?>
<!DOCTYPE svg PUBLIC "-//W3C//DTD SVG 20010904//EN"
 "http://www.w3.org/TR/2001/REC-SVG-20010904/DTD/svg10.dtd">
<svg version="1.0" xmlns="http://www.w3.org/2000/svg"
 width="512.000000pt" height="512.000000pt" viewBox="0 0 512.000000 512.000000"
 preserveAspectRatio="xMidYMid meet">

<g transform="translate(0.000000,512.000000) scale(0.100000,-0.100000)"
fill="#000000" stroke="none">
<path d="M521 4944 c-169 -45 -301 -180 -346 -351 -13 -50 -15 -314 -15 -2033
0 -2176 -4 -2028 61 -2151 62 -115 197 -214 328 -239 74 -14 2348 -14 2422 0
186 36 346 197 380 384 6 35 9 149 7 275 l-3 216 -34 63 c-38 69 -80 110 -151
144 -66 32 -196 31 -265 -2 -64 -31 -124 -91 -155 -155 -20 -43 -25 -68 -28
-172 l-4 -123 -959 0 -959 0 0 1760 0 1760 959 0 959 0 4 -122 c4 -100 9 -132
26 -168 34 -71 75 -113 144 -151 58 -31 70 -34 148 -34 78 0 90 3 148 34 70
38 100 69 140 145 26 50 27 55 30 267 2 128 -1 239 -7 274 -34 182 -175 332
-356 380 -86 22 -2391 22 -2474 -1z m2507 -183 c70 -38 100 -69 140 -145 l27
-51 0 -232 c0 -218 -1 -233 -21 -259 -39 -53 -71 -69 -134 -69 -63 0 -95 16
-134 69 -19 24 -22 46 -26 198 -5 164 -6 171 -29 189 -23 18 -55 19 -1093 19
l-1069 0 -24 -25 -25 -24 0 -1871 0 -1871 25 -24 24 -25 1069 0 c1038 0 1070
1 1093 19 23 18 24 25 29 189 4 152 7 174 26 198 39 53 71 69 134 69 63 0 95
-16 134 -69 20 -26 21 -41 21 -259 l0 -232 -27 -51 c-40 -76 -70 -107 -140
-145 l-63 -34 -1205 0 -1205 0 -63 34 c-70 38 -100 69 -140 145 l-27 51 0
2005 0 2005 27 51 c15 28 38 64 52 81 27 32 113 82 160 94 17 4 564 6 1216 6
l1185 -2 63 -34z"/>
<path d="M3682 3778 c-133 -20 -239 -126 -260 -260 -10 -67 2 -146 29 -201 13
-24 104 -125 217 -239 l196 -198 -1255 -2 -1254 -3 -50 -25 c-64 -31 -124 -91
-155 -155 -34 -69 -35 -198 -2 -265 34 -71 75 -113 144 -151 l63 -34 1254 -3
1255 -2 -196 -198 c-111 -112 -204 -215 -216 -239 -43 -84 -44 -211 -2 -294
27 -51 88 -112 142 -141 37 -20 58 -23 143 -23 86 0 106 3 145 24 30 15 207
185 527 504 555 553 548 544 548 687 0 143 7 134 -548 687 -311 311 -497 488
-524 502 -54 27 -135 39 -201 29z m113 -167 c27 -13 197 -176 517 -497 516
-519 500 -499 483 -591 -6 -33 -65 -96 -483 -516 -262 -263 -489 -485 -504
-493 -15 -8 -49 -14 -75 -14 -90 0 -153 63 -153 153 0 27 5 58 11 70 6 12 132
144 280 292 236 238 269 275 269 302 0 17 -9 41 -19 54 l-19 24 -1360 5
c-1355 5 -1361 5 -1388 26 -53 39 -69 71 -69 134 0 63 16 95 69 134 27 21 33
21 1388 26 l1360 5 19 24 c10 13 19 37 19 54 0 27 -34 65 -274 306 -224 226
-276 283 -286 316 -29 99 49 200 155 204 11 0 38 -8 60 -18z"/>
</g>
</svg>
